<svg width="144" height="56" viewBox="0 0 144 56" fill="none" xmlns="http://www.w3.org/2000/svg">
    <path d="M21.2537 0H42.5119L31.885 18.4041L21.2537 36.8127L10.6269 18.4041L0 0H21.2537Z" fill="#00A7E2"/>
    <path d="M4.52188 0H9.04376L6.78282 3.91539L4.52188 7.83079L2.26094 3.91539L0 0H4.52188Z" fill="#143980"/>
    <path d="M42.512 20.1968H54.1735L48.3405 10.0962L42.512 0L36.6835 10.0962L30.8506 20.1968H42.512Z" fill="#143980"/>
    <path d="M10.6269 36.8128H21.2582L15.9425 27.6085L10.6269 18.4042L5.31566 27.6085L0 36.8128H10.6269Z" fill="#B9E5FB"/>
    <path d="M37.5173 54.9672V55.7431H33.7937V49.5311H34.6588V54.9717H37.5173V54.9672Z" fill="#00A7E2"/>
    <path d="M50.9314 49.5311H51.7965V55.7164H50.9314V49.5311Z" fill="#00A7E2"/>
    <path d="M68.6176 54.8512C68.5596 54.7085 68.4794 54.5257 68.3813 54.3071L68.0646 53.5936C67.9532 53.335 67.8283 53.0719 67.7034 52.8043L67.3378 52.0417C67.2263 51.8009 67.1192 51.5958 67.0211 51.3951C66.923 51.1944 66.8472 51.0562 66.7848 50.9492C66.7179 51.6538 66.6688 52.4119 66.6242 53.2324C66.5796 54.053 66.5484 54.878 66.5172 55.7119H65.6699C65.6922 55.1767 65.719 54.6371 65.7502 54.0886C65.7814 53.5401 65.8126 53.0094 65.8528 52.4832C65.8929 51.957 65.933 51.4442 65.9776 50.9403C66.0222 50.4363 66.0713 49.9681 66.1248 49.5222H66.8918C67.0524 49.7853 67.2263 50.093 67.4091 50.4497C67.5919 50.8065 67.7792 51.1811 67.9665 51.5735C68.1538 51.9659 68.3278 52.3539 68.5017 52.7419C68.6756 53.1298 68.8317 53.4911 68.9744 53.8121L69.4471 52.7419C69.621 52.3539 69.7994 51.9615 69.9822 51.5735C70.165 51.1855 70.3523 50.8109 70.5396 50.4497C70.7269 50.0885 70.8964 49.7853 71.0569 49.5222H71.7972C71.9979 51.5155 72.154 53.5803 72.2431 55.7119H71.3959C71.3646 54.878 71.329 54.053 71.2888 53.2324C71.2487 52.4119 71.1907 51.6538 71.1283 50.9492C71.0416 51.0935 70.9627 51.2424 70.8919 51.3951C70.7938 51.5869 70.6868 51.8009 70.5753 52.0417C70.4638 52.2826 70.3434 52.5412 70.2141 52.8132C70.0848 53.0853 69.9644 53.3439 69.8529 53.6025C69.7414 53.8612 69.6344 54.0975 69.5318 54.3161C69.4292 54.5346 69.3579 54.7174 69.2999 54.8601L68.6176 54.8512Z" fill="#00A7E2"/>
    <path d="M86.1252 49.5311H86.9904V55.7164H86.1252V49.5311Z" fill="#00A7E2"/>
    <path d="M105.167 49.5311V50.2803H103.218V55.7431H102.353V50.3026H100.409V49.5534L105.167 49.5311Z" fill="#00A7E2"/>
    <path d="M118.581 55.7164V49.5311H122.358V50.2714H119.451V52.1131H122.037V52.8356H119.451V54.9761H122.572V55.7431H118.559L118.581 55.7164Z" fill="#00A7E2"/>
    <path d="M141.271 52.6215C141.281 53.0987 141.196 53.5732 141.021 54.0173C140.865 54.3966 140.622 54.7341 140.312 55.0028C139.993 55.2694 139.623 55.4668 139.224 55.5826C138.771 55.7154 138.3 55.78 137.828 55.7743C137.578 55.7743 137.302 55.7743 137.003 55.7431C136.728 55.7244 136.455 55.6841 136.187 55.6227V49.6203C136.455 49.5589 136.728 49.5186 137.003 49.4999C137.302 49.4999 137.578 49.4687 137.828 49.4687C138.3 49.4651 138.77 49.5297 139.224 49.6604C139.624 49.7759 139.995 49.975 140.312 50.2446C140.623 50.5104 140.866 50.8468 141.021 51.2257C141.197 51.6696 141.282 52.1442 141.271 52.6215ZM137.899 55.0118C138.233 55.044 138.57 55.0061 138.888 54.9006C139.206 54.795 139.498 54.6241 139.746 54.3988C139.995 54.1735 140.193 53.8988 140.329 53.5923C140.464 53.2859 140.534 52.9544 140.534 52.6193C140.534 52.2841 140.464 51.9527 140.329 51.6462C140.193 51.3398 139.995 51.0651 139.746 50.8398C139.498 50.6145 139.206 50.4435 138.888 50.338C138.57 50.2324 138.233 50.1945 137.899 50.2268C137.659 50.2268 137.453 50.2268 137.333 50.2268C137.239 50.2218 137.146 50.2218 137.052 50.2268V54.9627H137.333L137.899 55.0118Z" fill="#00A7E2"/>
    <path d="M36.5363 35.3277C37.1027 35.4481 37.6646 35.5819 38.2265 35.729C38.7519 35.862 39.2562 36.0676 39.7248 36.34C40.1533 36.5912 40.5168 36.9395 40.7862 37.3567C41.0789 37.8525 41.2214 38.4226 41.1964 38.9978C41.2199 39.5171 41.1169 40.0344 40.8963 40.5051C40.6757 40.9758 40.3441 41.386 39.93 41.7002C39.0871 42.3647 37.9054 42.6635 36.3936 42.6635C34.8819 42.6635 33.718 42.3424 32.8662 41.7002C32.454 41.3848 32.1243 40.9742 31.9053 40.5036C31.6864 40.0329 31.5845 39.5163 31.6086 38.9978H32.8528C32.8301 39.4511 32.957 39.8992 33.214 40.2732C33.4494 40.5874 33.7548 40.8424 34.1059 41.0179C34.4716 41.1937 34.863 41.3096 35.2654 41.3613C36.0048 41.4675 36.7557 41.4675 37.4951 41.3613C37.8975 41.3096 38.2889 41.1937 38.6546 41.0179C39.0028 40.838 39.3073 40.5838 39.5465 40.2732C39.8085 39.9012 39.9387 39.4523 39.9166 38.9978C39.927 38.6806 39.8661 38.3652 39.7382 38.0747C39.6121 37.8225 39.4193 37.6096 39.1808 37.4593C38.825 37.2528 38.4444 37.0925 38.0481 36.9821C37.5754 36.8394 36.9867 36.6967 36.2643 36.5362C35.6935 36.4203 35.1316 36.2865 34.5697 36.1393C34.0459 36.0055 33.5432 35.7999 33.0758 35.5284C32.643 35.2755 32.2774 34.9222 32.01 34.4982C31.7194 34.0001 31.5785 33.4288 31.6042 32.8527C31.5805 32.333 31.6825 31.8152 31.9014 31.3432C32.1203 30.8713 32.4497 30.459 32.8617 30.1414C33.7001 29.4903 34.873 29.1647 36.3892 29.1647C37.9054 29.1647 39.0648 29.4903 39.921 30.1414C40.3359 30.457 40.6678 30.8687 40.8884 31.3409C41.109 31.8132 41.2117 32.332 41.1875 32.8527H39.9612C39.984 32.3981 39.8537 31.949 39.591 31.5773C39.3551 31.2636 39.0499 31.0088 38.6992 30.8326C38.3345 30.6534 37.9427 30.5359 37.5397 30.4847C36.8003 30.3786 36.0494 30.3786 35.31 30.4847C34.9069 30.5359 34.5152 30.6534 34.1505 30.8326C33.7993 31.0079 33.4938 31.263 33.2586 31.5773C33.0573 31.9028 32.9362 32.2714 32.9052 32.6528C32.8742 33.0343 32.9342 33.4176 33.0803 33.7713C33.2229 34.0402 33.4375 34.2641 33.7001 34.418C34.0398 34.6232 34.4038 34.785 34.7838 34.8996C35.3604 35.0717 35.9453 35.2146 36.5363 35.3277Z" fill="#143980"/>
    <path d="M47.025 35.3633L52.8223 42.5386H51.2258L46.1732 36.2686L44.6526 37.8651V42.5564H43.4128V29.2896H44.6526V36.0724L51.1009 29.2896H52.8L47.025 35.3633Z" fill="#143980"/>
    <path d="M60.2024 36.6923V42.5564H58.9805V36.6388L53.8433 29.2896H55.3506L59.6004 35.4169L63.8324 29.2896H65.3397L60.2024 36.6923Z" fill="#143980"/>
    <path d="M92.8545 29.2852L87.0974 42.3068C87.046 42.4134 86.9656 42.5032 86.8654 42.5661C86.7652 42.6291 86.6493 42.6624 86.531 42.6624C86.4127 42.6624 86.2968 42.6291 86.1966 42.5661C86.0965 42.5032 86.0161 42.4134 85.9647 42.3068L83.4674 36.6567L80.9656 42.3068C80.9189 42.416 80.8402 42.5085 80.7399 42.5722C80.6397 42.6359 80.5225 42.6677 80.4037 42.6636C80.2805 42.6667 80.1593 42.6325 80.0559 42.5654C79.9578 42.503 79.8803 42.413 79.8329 42.3068L74.0356 29.2852H75.4181L80.377 40.5186L82.7717 35.136L81.6524 32.6699H83.0348L86.5132 40.5186L91.5078 29.2852H92.8545Z" fill="#143980"/>
    <path d="M100.668 42.6635C99.7004 42.6819 98.7375 42.5309 97.8224 42.2175C97.0268 41.9321 96.3037 41.4754 95.7041 40.8797C95.1067 40.2815 94.6498 39.558 94.3663 38.7615C93.748 36.9197 93.748 34.9264 94.3663 33.0846C94.6486 32.2849 95.1056 31.5582 95.7041 30.9574C96.3037 30.3617 97.0268 29.905 97.8224 29.6196C99.6697 29.007 101.665 29.007 103.513 29.6196C104.311 29.8964 105.036 30.3515 105.633 30.9503C106.229 31.5492 106.682 32.276 106.955 33.0757C107.574 34.9174 107.574 36.9107 106.955 38.7525C106.68 39.5501 106.226 40.2747 105.63 40.8718C105.034 41.4689 104.31 41.9229 103.513 42.1997C102.599 42.5192 101.636 42.6761 100.668 42.6635ZM100.668 30.4044C98.8837 30.4044 97.5162 30.8771 96.5648 31.8226C95.6135 32.768 95.1452 34.1311 95.1601 35.9119C95.1601 37.6956 95.6283 39.0662 96.5648 40.0235C97.5013 40.9808 98.8689 41.4535 100.668 41.4416C102.451 41.4416 103.817 40.9689 104.766 40.0235C105.714 39.0781 106.184 37.7075 106.175 35.9119C106.175 34.1281 105.705 32.765 104.766 31.8226C103.826 30.8801 102.46 30.4074 100.668 30.4044Z" fill="#143980"/>
    <path d="M118.88 42.5565L114.577 37.2051H110.501V42.5565H109.257V29.9273C109.258 29.764 109.323 29.6077 109.438 29.4918C109.553 29.376 109.709 29.3098 109.872 29.3074H115.58C116.097 29.3155 116.607 29.4294 117.078 29.6419C117.535 29.8519 117.952 30.1402 118.309 30.4936C118.667 30.8505 118.951 31.2749 119.143 31.7423C119.531 32.6728 119.547 33.7168 119.188 34.6588C119.022 35.0896 118.782 35.4881 118.479 35.8361C118.18 36.1823 117.824 36.4749 117.426 36.7012C117.022 36.9331 116.577 37.0846 116.115 37.1471L120.472 42.552L118.88 42.5565ZM110.501 35.9654H115.5C115.86 35.9678 116.216 35.8965 116.548 35.7558C116.87 35.6166 117.163 35.4185 117.413 35.1716C117.66 34.9241 117.858 34.6321 117.997 34.3109C118.141 33.979 118.214 33.6204 118.211 33.2585C118.213 32.8923 118.141 32.5296 117.997 32.1927C117.862 31.8711 117.663 31.5799 117.413 31.3365C117.163 31.091 116.87 30.8944 116.548 30.7568C116.216 30.6182 115.86 30.5469 115.5 30.5472H110.505L110.501 35.9654Z" fill="#143980"/>
    <path d="M130.747 41.3168L130.376 42.5565H122.635C122.551 42.559 122.469 42.5435 122.392 42.5112C122.315 42.4789 122.246 42.4305 122.189 42.3692C122.128 42.3122 122.08 42.2431 122.048 42.1662C122.015 42.0894 122 42.0066 122.002 41.9233V29.2852H123.241V41.3257L130.747 41.3168Z" fill="#143980"/>
    <path d="M136.932 42.5565H133.721C133.638 42.5582 133.556 42.5428 133.479 42.5113C133.402 42.4799 133.333 42.433 133.275 42.3737C133.216 42.3155 133.169 42.246 133.138 42.1694C133.107 42.0927 133.091 42.0106 133.092 41.9278V29.8783C133.089 29.7953 133.104 29.7127 133.136 29.6358C133.167 29.5589 133.215 29.4896 133.275 29.4324C133.334 29.3751 133.404 29.3302 133.48 29.3003C133.557 29.2704 133.639 29.2562 133.721 29.2585H137.034C137.984 29.2429 138.929 29.3939 139.826 29.7044C140.61 29.9749 141.322 30.4203 141.908 31.0067C142.495 31.5931 142.94 32.3052 143.211 33.0891C143.523 33.986 143.674 34.9312 143.657 35.8808C143.679 36.8205 143.527 37.7562 143.211 38.6411C142.919 39.4306 142.458 40.1462 141.859 40.7373C141.26 41.3284 140.539 41.7805 139.746 42.0615C138.845 42.3949 137.892 42.5626 136.932 42.5565ZM134.341 41.3168H136.932C138.689 41.3168 140.043 40.8471 140.994 39.9076C141.946 38.9682 142.421 37.6303 142.421 35.8941C142.421 34.1371 141.96 32.7993 141.039 31.8806C140.117 30.962 138.779 30.4997 137.025 30.4937H134.35L134.341 41.3168Z" fill="#143980"/>
</svg>
